<svg id="Layer_1" data-name="Layer 1" xmlns="http://www.w3.org/2000/svg" viewBox="0 0 341.98 349.87"><defs><style>.cls-1,.cls-3{fill:#edf0f1;}.cls-2,.cls-4{fill:#e57d25;}.cls-3{font-size:46.84px;font-family:CenturySchoolbook-Bold, Century Schoolbook;font-weight:700;}.cls-4{font-size:27.96px;font-family:OpenSansSemiCondensed-Regular, Open Sans SemiCondensed;}</style></defs><path class="cls-1" d="M102.3,82.21c-4.74,3.36-9,6.38-13.28,9.42-3,2.12-5.81,4.42-8.89,6.35-2.13,1.34-2.71,3-2.7,5.37.08,25.74,0,51.47,0,77.21v2.89c.78.25,1.15-.27,1.58-.58q32.93-23.75,65.83-47.51c8.25-6,16.54-11.83,24.76-17.81,1.27-.93,2.12-.79,3.31.09q44.63,32.7,89.3,65.32c.48.35.94,1.1,1.59.8s.35-1.14.35-1.73c0-14.51,0-29,.05-43.54a3.74,3.74,0,0,0-1.69-3.36Q248.27,124.75,234,114.3a2.36,2.36,0,0,0-.58-.25c-.57.45-.27,1-.27,1.56q0,17.25,0,34.5c0,.81.33,1.88-.49,2.35s-1.65-.46-2.36-1c-4.77-3.32-9.5-6.71-14.3-10a5.47,5.47,0,0,1-2.69-5.05c.11-10.72.07-21.45,0-32.18a4,4,0,0,1,1.85-3.7c5.13-3.68,10.19-7.44,15.27-11.18a3.38,3.38,0,0,1,4.66,0q23.58,17.66,47.3,35.09a4.07,4.07,0,0,1,1.86,3.68q-.07,36.81,0,73.61c0,2.59-.14,2.67-2.65,1.91a148.75,148.75,0,0,0-32-5.74,5.63,5.63,0,0,1-3.09-1.11q-36.6-26.75-73.18-53.5c-1.71-1.26-2.82-1.28-4.54,0Q132,170,95.2,196.63A7,7,0,0,1,91.55,198a129.54,129.54,0,0,0-31.65,7.39c-2.64.94-2.66.93-2.66-1.87q0-55.76-.05-111.5a4.68,4.68,0,0,1,2.24-4.33Q80.31,72.91,101.08,58a2.53,2.53,0,0,1,3.51,0q8.1,6,16.32,11.89a3.69,3.69,0,0,1,1.69,3.34q0,34.18,0,68.37a3.59,3.59,0,0,1-1.77,3.28c-5.36,3.71-10.66,7.51-16,11.26-.61.43-1.26,1.28-2,.93s-.52-1.5-.52-2.3q0-34.81,0-69.63Z"/><path class="cls-2" d="M340.51,239.7c-5.63-2.51-11.2-4.93-16.87-7.11a180.83,180.83,0,0,0-44.85-10.8,224.3,224.3,0,0,0-30.42-1.53,272.67,272.67,0,0,0-62.79,8.36c-4.28,1.1-8.55,2.24-12.76,3.56a5,5,0,0,1-3.29,0,234.62,234.62,0,0,0-46.14-11.06A225.86,225.86,0,0,0,86.28,219c-20.07.57-39.79,3.42-58.82,10.1a173.23,173.23,0,0,0-22.61,9.66c-.92.49-1.89.89-3.39,1.59A23.53,23.53,0,0,1,7,235c19.34-15.4,41.42-24.69,65.63-29.13a214.82,214.82,0,0,1,46.46-3.38,253.45,253.45,0,0,1,47.26,6.17,18.5,18.5,0,0,0,8.69,0,232.73,232.73,0,0,1,40.29-5.95,210.29,210.29,0,0,1,67.32,6.32c19.46,5.19,37.41,13.52,53.05,26.43C337.37,236.84,338.92,238.29,340.51,239.7Z"/><path class="cls-2" d="M129.22,83.81q0-25.66,0-51.32a4,4,0,0,1,1.72-3.75c12.52-8.88,25-17.84,37.46-26.76,1.35-1,2-.64,2,1.1,0,2.45-.28,4.9-.26,7.34.06,9.67.38,19.35.23,29s-.26,19.34-.21,29c0,7.84.22,15.67,0,23.51-.1,4.88.19,9.8.26,14.7a4,4,0,0,1-1.83,3.72q-16.93,11.89-33.81,23.92c-1.31.93-2.57,1.94-3.86,2.91-1.07.8-1.66.54-1.71-.81,0-.63,0-1.27,0-1.9q0-25.34,0-50.68Z"/><path class="cls-1" d="M338.06,246.58a233.31,233.31,0,0,0-23.31-5.46,244.12,244.12,0,0,0-29.43-3.25,260.84,260.84,0,0,0-36.13.56,273.43,273.43,0,0,0-58.76,11.08c-6,1.84-11.88,3.8-17.67,6.14a5.51,5.51,0,0,1-4.43,0c-18.67-7.38-38-12.1-57.83-15.18C92,237.58,73.36,237.25,54.71,238a211.28,211.28,0,0,0-48.47,7.69,2.72,2.72,0,0,1-1.91.25c.4-.88,1.27-1.08,2-1.44,13.19-6.86,27.35-10.77,41.88-13.45a234.18,234.18,0,0,1,52.14-3.31,266.47,266.47,0,0,1,52.54,7.6c5.17,1.27,10.31,2.67,15.43,4.13a8,8,0,0,0,4.89,0,252.83,252.83,0,0,1,51.74-10.85c28.12-2.78,56-1.7,83.41,5.78,9.55,2.6,18.91,5.77,27.65,10.53A3.92,3.92,0,0,1,338.06,246.58Z"/><path class="cls-1" d="M178,20.79c.84.18,1,1,1.28,1.53q8.85,15.28,17.66,30.6a7.3,7.3,0,0,1,1,3.79q0,34.19,0,68.37c0,.66.34,1.56-.38,1.93s-1.24-.45-1.78-.84c-5.49-3.9-10.93-7.85-16.45-11.71a3.63,3.63,0,0,1-1.71-3.32q.06-44.28,0-88.57C177.66,22,177.43,21.31,178,20.79Z"/><path class="cls-2" d="M163.49,179.33h5a1.67,1.67,0,0,1,1.93,1.9q0,4.83,0,9.64c0,1.42-.72,2-2.1,2-3.14,0-6.29,0-9.43,0-1.1,0-1.92-.25-2-1.58-.15-3.14-.39-6.27-.34-9.42,0-1.88.82-2.66,2.7-2.53,1.39.09,2.79,0,4.19,0Z"/><path class="cls-2" d="M178.55,192.82c-1.61,0-3.22,0-4.82,0-1.3,0-1.95-.56-1.95-1.87q0-4.94,0-9.85a1.51,1.51,0,0,1,1.65-1.73,96.3,96.3,0,0,1,10.05.17c1.3.14,1.84.71,1.83,2,0,3.15,0,6.29,0,9.43,0,1.34-.63,1.89-1.93,1.86-1.61,0-3.21,0-4.82,0Z"/><path class="cls-2" d="M163.39,164.93c1.76,0,3.51,0,5.26,0,1.24,0,1.8.56,1.8,1.78,0,3.15,0,6.31,0,9.46,0,1.34-.69,1.88-2,1.87-3.22,0-6.45,0-9.67,0-1.35,0-1.86-.63-1.87-1.93,0-3.3-.05-6.59-.15-9.88,0-1,.38-1.37,1.36-1.34,1.75,0,3.5,0,5.25,0Z"/><path class="cls-2" d="M178.65,164.92c1.54,0,3.08,0,4.62,0s2,.53,2,2c0,3.07-.05,6.15,0,9.23,0,1.46-.66,2-2.05,1.95-3.07,0-6.15-.06-9.23,0-1.58,0-2.31-.58-2.28-2.21.06-3,0-6,0-9,0-1.32.54-1.94,1.88-1.91,1.67,0,3.35,0,5,0Z"/><text class="cls-3" transform="translate(1.47 304.25)">HÀ ANH NAM</text><text class="cls-4" transform="translate(1.47 347.9)">TƯ VẤN - THIẾT KẾ - THI CÔNG</text><path class="cls-2" d="M213.41,137.65V136c0-.62-.06-31.07-.06-31.69a4,4,0,0,1,.41-2.08,4,4,0,0,1,1.44-1.62l15.27-11.18a3.53,3.53,0,0,1,1.6-.84,3.49,3.49,0,0,1,1-.08l.12,63.09a1,1,0,0,1-.56,1,1,1,0,0,1-.79,0l-16.78-11.8a4.64,4.64,0,0,1-1.13-1.38A4.7,4.7,0,0,1,213.41,137.65Z"/></svg>