<svg xmlns="http://www.w3.org/2000/svg" viewBox="0 0 339.06 353.61"><defs><style>.cls-1,.cls-3{fill:#e6e7e8;}.cls-2,.cls-4{fill:#f7931e;}.cls-3{font-size:56.62px;font-family:FranklinGothic-Heavy, Franklin Gothic Heavy;font-weight:800;}.cls-4{font-size:27.52px;font-family:OpenSansSemiCondensed-Regular, Open Sans SemiCondensed;}</style></defs><g id="Layer_2" data-name="Layer 2"><g id="Layer_1-2" data-name="Layer 1"><path class="cls-1" d="M100.85,80.77c-4.74,3.36-9,6.37-13.28,9.41-3,2.12-5.82,4.42-8.9,6.36-2.12,1.33-2.71,2.95-2.7,5.37.09,25.74.06,51.47.06,77.2V182c.77.25,1.15-.27,1.58-.58q32.91-23.75,65.83-47.51c8.24-5.95,16.54-11.83,24.75-17.81,1.28-.93,2.12-.79,3.32.08q44.63,32.7,89.3,65.33c.48.35.94,1.09,1.59.8s.34-1.14.34-1.73c0-14.52,0-29,.06-43.55a3.76,3.76,0,0,0-1.69-3.35q-14.3-10.39-28.54-20.84a3.89,3.89,0,0,0-.58-.25c-.58.45-.27,1.06-.27,1.57,0,11.5,0,23,0,34.5,0,.81.34,1.87-.48,2.34-1,.56-1.65-.45-2.36-.94-4.77-3.33-9.51-6.71-14.31-10a5.49,5.49,0,0,1-2.68-5.05c.11-10.73.07-21.46,0-32.19a4.07,4.07,0,0,1,1.84-3.7C218.86,95.47,223.92,91.7,229,88a3.38,3.38,0,0,1,4.67,0Q257.24,105.62,281,123a4.12,4.12,0,0,1,1.86,3.69q-.07,36.79-.05,73.6c0,2.6-.14,2.67-2.65,1.92a148.23,148.23,0,0,0-32-5.74A5.74,5.74,0,0,1,245,195.4q-36.59-26.76-73.17-53.51c-1.71-1.25-2.82-1.28-4.54,0q-36.75,26.73-73.57,53.32a7,7,0,0,1-3.65,1.34,130,130,0,0,0-31.65,7.39c-2.64,1-2.67.94-2.67-1.87q0-55.74-.05-111.49A4.73,4.73,0,0,1,58,86.21Q78.85,71.48,99.62,56.59a2.54,2.54,0,0,1,3.52,0q8.08,6,16.32,11.89a3.68,3.68,0,0,1,1.69,3.34q0,34.18,0,68.36a3.61,3.61,0,0,1-1.76,3.29c-5.36,3.71-10.66,7.51-16,11.25-.61.43-1.25,1.28-2,.94-.89-.42-.52-1.5-.52-2.3q0-34.82,0-69.63Z"/><path class="cls-2" d="M339.06,238.25c-5.64-2.5-11.2-4.92-16.87-7.1a180.38,180.38,0,0,0-44.86-10.81,227.42,227.42,0,0,0-30.42-1.53,273.91,273.91,0,0,0-62.79,8.36c-4.27,1.11-8.54,2.24-12.75,3.57a5.08,5.08,0,0,1-3.29,0,234.82,234.82,0,0,0-46.14-11.07,227,227,0,0,0-37.11-2.18C64.75,218.1,45,221,26,227.63A173.75,173.75,0,0,0,3.4,237.3c-.93.48-1.89.89-3.39,1.59a23.33,23.33,0,0,1,5.58-5.31c19.34-15.41,41.41-24.7,65.63-29.13a213.52,213.52,0,0,1,46.46-3.38,253.34,253.34,0,0,1,47.25,6.17,18.5,18.5,0,0,0,8.69,0,234,234,0,0,1,40.29-5.94,210,210,0,0,1,67.32,6.32c19.47,5.18,37.41,13.51,53,26.42C335.92,235.39,337.47,236.85,339.06,238.25Z"/><path class="cls-2" d="M127.77,82.36q0-25.65,0-51.31a4,4,0,0,1,1.72-3.75C142,18.42,154.44,9.46,166.93.54c1.35-1,2-.64,2,1.1,0,2.44-.28,4.89-.27,7.34.06,9.67.38,19.34.24,29s-.26,19.34-.22,29c0,7.83.22,15.66.06,23.5-.1,4.89.19,9.8.25,14.71a4,4,0,0,1-1.82,3.71q-17,11.91-33.81,23.92c-1.31.93-2.57,1.95-3.86,2.91-1.07.8-1.66.55-1.72-.81,0-.63,0-1.26,0-1.89V82.36Z"/><path class="cls-1" d="M336.61,245.13a236,236,0,0,0-23.31-5.45,242.5,242.5,0,0,0-29.44-3.25,262.43,262.43,0,0,0-36.13.55A272.75,272.75,0,0,0,189,248.07c-6,1.83-11.89,3.8-17.67,6.14a5.53,5.53,0,0,1-4.44,0c-18.66-7.39-38-12.1-57.82-15.19-18.51-2.88-37.15-3.22-55.79-2.46a210.28,210.28,0,0,0-48.48,7.69,2.83,2.83,0,0,1-1.91.25c.41-.89,1.27-1.08,2-1.44C18,236.2,32.18,232.28,46.72,229.6a234.73,234.73,0,0,1,52.13-3.31,267.33,267.33,0,0,1,52.55,7.61c5.17,1.26,10.31,2.67,15.43,4.13a8,8,0,0,0,4.88-.05,253.45,253.45,0,0,1,51.75-10.85c28.12-2.78,56-1.7,83.41,5.78,9.55,2.61,18.91,5.77,27.64,10.53A3.94,3.94,0,0,1,336.61,245.13Z"/><path class="cls-1" d="M176.55,19.34c.83.18,1,1,1.28,1.53q8.85,15.3,17.66,30.61a7.27,7.27,0,0,1,1,3.79q0,34.19,0,68.37c0,.66.34,1.56-.38,1.93s-1.24-.46-1.78-.84c-5.49-3.9-10.94-7.86-16.45-11.71a3.64,3.64,0,0,1-1.71-3.32q.06-44.29.05-88.57C176.21,20.54,176,19.87,176.55,19.34Z"/><path class="cls-2" d="M162,177.89c1.68,0,3.36,0,5,0a1.67,1.67,0,0,1,1.93,1.91q0,4.82,0,9.64c0,1.42-.72,2-2.1,2-3.15,0-6.29,0-9.43,0-1.1,0-1.92-.25-2-1.58-.16-3.14-.39-6.27-.34-9.42,0-1.88.82-2.66,2.69-2.54,1.39.1,2.8,0,4.19,0Z"/><path class="cls-2" d="M177.1,191.37c-1.61,0-3.22,0-4.82,0-1.3,0-2-.57-2-1.88q0-4.92,0-9.85a1.5,1.5,0,0,1,1.65-1.72,99.12,99.12,0,0,1,10,.16c1.3.14,1.84.71,1.82,2,0,3.14,0,6.29,0,9.43,0,1.34-.62,1.89-1.92,1.86-1.61,0-3.22,0-4.82,0Z"/><path class="cls-2" d="M161.94,163.49c1.75,0,3.51,0,5.26,0,1.24,0,1.8.56,1.79,1.77v9.47c0,1.33-.69,1.87-2,1.87-3.23,0-6.45,0-9.68,0-1.34,0-1.86-.63-1.86-1.94,0-3.29,0-6.58-.15-9.88,0-1,.38-1.36,1.35-1.34,1.75,0,3.51,0,5.26,0Z"/><path class="cls-2" d="M177.2,163.48c1.54,0,3.08,0,4.61,0s2.06.53,2,2c0,3.08,0,6.16,0,9.23,0,1.47-.65,2-2,2-3.08,0-6.16-.07-9.23,0-1.59,0-2.31-.58-2.28-2.22.05-3,0-6,0-9,0-1.32.54-1.93,1.87-1.9,1.68,0,3.36,0,5,0Z"/><text class="cls-3" transform="translate(0 303.69)">HÀ ANH NAM</text><text class="cls-4" transform="translate(2.87 346.3)">TƯ VẤN - THIẾT KẾ - THI CÔNG</text><path class="cls-2" d="M212,136.1v-1.67c0-.62-.06-31.07-.06-31.69a4,4,0,0,1,.41-2.08A4.07,4.07,0,0,1,213.75,99L229,87.86a3.53,3.53,0,0,1,1.6-.84,3.49,3.49,0,0,1,1-.08l.12,63.09a1,1,0,0,1-.56,1,1.08,1.08,0,0,1-.79,0l-16.79-11.81a4.8,4.8,0,0,1-1.12-1.38A4.7,4.7,0,0,1,212,136.1Z"/></g></g></svg>